<?xml version="1.0" encoding="utf-8"?>
<!-- Generator: Adobe Illustrator 21.0.2, SVG Export Plug-In . SVG Version: 6.00 Build 0)  -->
<svg version="1.1" id="Layer_1" xmlns="http://www.w3.org/2000/svg" xmlns:xlink="http://www.w3.org/1999/xlink" x="0px" y="0px"
	 viewBox="0 0 512 512" style="enable-background:new 0 0 512 512;" xml:space="preserve">
<style type="text/css">
	.st0{fill:#5FBA7D;}
	.st1{fill:#4372DD;}
	.st2{fill:#3E6BC6;}
	.st3{fill:#383A3D;}
	.st4{fill:#E5DB1C;}
	.st5{fill:#E2601E;}
	.st6{fill:#936035;}
	.st7{fill:#A8AAAD;}
</style>
<g id="Layer_2">
	<rect class="st0" width="512" height="512"/>
</g>
<g id="Layer_1_1_">
	<g>
		<path class="st1" d="M384,40c0,0-124-49-150,57s-1,51,34,56s89-10,89-10s-49-49-36-70s42-25,55-15s8,56,14,22
			C394.7,53.1,395,47,384,40z"/>
		<path class="st2" d="M386,144c0,0-46-50-99-47s-106,27-105,37s38,35,86,34S404,160,386,144z"/>
	</g>
	<g>
		<path class="st3" d="M233,465L117,185c0,0-21-1-24-18s14-32,5-38s9,53,12,26s-18-59-5-49s28,16,24,28s-7,36,2,42s97,260,97,260
			L233,465z"/>
		<path class="st4" d="M92.1,114.3c0,0-8,9.4,0,28.2s14.4,35.9,17.6,23.1c3.2-12.8,11.2-31.6,4.8-35.9c-6.4-4.3-21.7-23.1-20.1-29.9
			C96.1,92.9,92.1,114.3,92.1,114.3z"/>
		<path class="st5" d="M92.8,93c0,0-3.4,43.1,2.4,54.2c5.7,11.1,20,19.8,12.9,0S92.8,111.3,92.8,93z"/>
	</g>
	<path class="st6" d="M267.4,112.2c0,0-68.2,10.9-79,76.5s26.6,99,1.7,138.8c-28.4,45.4-36.8,66.4-23.9,111.2
		c9.7,33.7,60,54.1,89.7,46.3c44.7-11.8,72.2-32,92-65c28.9-48.3,47.3-140.3,32-199c-13.7-52.7-33.5-88-71.9-105.6
		C288.2,106.2,267.4,112.2,267.4,112.2z"/>
	<path class="st7" d="M206,250c0,0,20,45,9,65s-19,45-19,50s21-31,29-38s11-36,15-19s7,33,0,47s26-31,21-36s13-63,13-37s19,57,16-11
		c-0.8-17-5-29-11-35s-7-21-14-23s-9-9-28,0s-33,14-33,22S206,250,206,250z"/>
</g>
</svg>
