<?xml version="1.0" encoding="utf-8"?>
<!-- Generator: Adobe Illustrator 21.0.2, SVG Export Plug-In . SVG Version: 6.00 Build 0)  -->
<svg version="1.1" id="Layer_1" xmlns="http://www.w3.org/2000/svg" xmlns:xlink="http://www.w3.org/1999/xlink" x="0px" y="0px"
	 viewBox="0 0 512 512" style="enable-background:new 0 0 512 512;" xml:space="preserve">
<style type="text/css">
	.st0{fill:#B75F5F;}
	.st1{fill:#A8AAAD;}
	.st2{fill:#383A3D;}
	.st3{fill:#4372DD;}
	.st4{fill:#3E6BC6;}
</style>
<g id="Layer_2">
	<rect class="st0" width="512" height="512"/>
</g>
<g id="Layer_1_1_">
	<path class="st1" d="M242.5,371.6c0,0-34.9,34.7-57.5,31.5s-48.8-1.7-53.5,0s36.4,8.6,45.8,13.6c9.4,5,37.6-2.5,23.1,7.3
		c-14.5,9.8-28.3,18.3-43.9,16.7c-15.6-1.6,38.2,13.3,41.1,6.8c2.9-6.5,63.5-10.3,39.2-1c-24.3,9.3-46.5,38,16,11
		c15.6-6.8,25.3-15,28.8-22.7c3.5-7.7,17.1-14,16.5-21.3c-0.6-7.3,5.2-11.6-10-26.2c-15.2-14.6-24.8-25.9-32.3-23
		C248.3,367.3,242.5,371.6,242.5,371.6z"/>
	<g>
		<path class="st2" d="M252.7,388.3L-43.2,454c0,0-4.6,20.5-21.9,20.5c-17.3,0-29.1-19.3-36.6-11.5s53.8,0.3,27.7-7.3
			c-26.1-7.6-61.2,7.5-49.1-3.6c12.1-11.1,20.6-24.8,31.7-18.8c11.1,6,34.2,13.1,41.7,5.3s272.9-50.5,272.9-50.5L252.7,388.3z"/>
	</g>
	<g>
		<path class="st3" d="M425.4,407.3c0,0-98.1-79.7-145.9-45s-12.8,22.1,16.9,40.7c29.8,18.6,81,37.2,81,37.2s-22.7-32.9-6.3-36.1
			c16.4-3.2,23.3-11.4,32.4-0.9"/>
		<path class="st4" d="M401.1,456c0,0-31.4-45.2-81.3-63.3s-104.5-24.2-105.8-18.2s27.4,33.8,72.2,51.1
			C330.9,442.9,414.2,471.7,401.1,456z"/>
	</g>
</g>
</svg>
