<?xml version="1.0" encoding="utf-8"?>
<!-- Generator: Adobe Illustrator 21.0.2, SVG Export Plug-In . SVG Version: 6.00 Build 0)  -->
<svg version="1.1" id="Layer_1" xmlns="http://www.w3.org/2000/svg" xmlns:xlink="http://www.w3.org/1999/xlink" x="0px" y="0px"
	 viewBox="0 0 512 512" style="enable-background:new 0 0 512 512;" xml:space="preserve">
<style type="text/css">
	.st0{fill:#5FBA7D;}
	.st1{fill:#47E036;}
	.st2{fill:#E8E8E8;}
	.st3{fill:#F79719;}
	.st4{fill:#4372DD;}
	.st5{fill:#3E6BC6;}
	.st6{fill:#383A3D;}
	.st7{fill:#E5DB1C;}
	.st8{fill:#E2601E;}
	.st9{fill:#936035;}
	.st10{fill:#A8AAAD;}
	.st11{fill:#E2DD2B;}
	.st12{fill:#F6FC0B;}
	.st13{fill:#DBF42A;}
	.st14{fill:#3A3928;}
	.st15{fill:#ED3232;}
</style>
<g id="Layer_2">
	<g>
		<rect class="st0" width="512" height="512"/>
	</g>
</g>
<g>
	<path class="st1" d="M93.3,239.1c-2.6,21.1,24.1,20.3,24.1,20.3l1.1,3.6c0,0-23.6,3.2-31.2-22.1C80.3,217.8,93.3,239.1,93.3,239.1z
		"/>
	<rect x="106.9" y="248.8" class="st2" width="10" height="2.9"/>
	<path class="st1" d="M150.9,284l-24,1c-1.5,0.1-2.8-0.8-3.2-2.1l-6.4-23.5l-1.9-6.5c-0.1-0.2-0.1-0.4-0.1-0.6
		c-0.1-1.5-1.8-10-23.6-11.2c-18.7-1-24-1.6-31.1-1.8c-1.7-0.1-3-1.3-3-2.9v-14.9c0-1.6,1.3-2.9,3.1-2.9l46.2-1.5
		c0,0,40.6-5.7,41.7,11.8c-3.9,12.7-5.1,14.9,2.6,44.3c0.7,2.8,1.8,5.1,2.5,6.8C154.4,282,153,283.9,150.9,284z"/>
	<path class="st3" d="M57.7,221.5c0,0-11.9,6.7,0,15V221.5z"/>
	<rect x="104.6" y="246.6" class="st2" width="2.3" height="7.7"/>
</g>
<g id="Layer_1_2_">
	<g>
		<path class="st4" d="M197.9,97.9c5.4,28.5,0.9-10.1,12.5-18.4c11.6-8.4,37.6-5,49.2,12.6s-32.2,58.6-32.2,58.6s48.3,12.6,79.7,8.4
			s53.7,41.9,30.4-46.9c-23.3-88.8-134.3-47.8-134.3-47.8C193.4,70.3,193.7,75.4,197.9,97.9z"/>
		<path class="st5" d="M307.1,171.6c43,0.8,76.1-20.1,77-28.5c0.9-8.4-46.5-28.5-94-31s-88.6,39.4-88.6,39.4
			C185.3,164.9,264.1,170.8,307.1,171.6z"/>
	</g>
	<g>
		<path class="st6" d="M342.9,396.1c0,0,78.8-212.8,86.8-217.8c8.1-5,5.4-25.1,1.8-35.2s9.8-15.1,21.5-23.5s-7.2,18.4-4.5,41
			c2.7,22.6,18.8-26.8,10.7-21.8s7.2,17.6,4.5,31.8c-2.7,14.2-21.5,15.1-21.5,15.1L338.4,420.4L342.9,396.1z"/>
		<path class="st7" d="M462.5,114.5c1.4,5.7-12.3,21.4-18,25c-5.7,3.6,1.4,19.4,4.3,30.1c2.9,10.7,8.6-3.6,15.8-19.4
			c7.2-15.7,0-23.6,0-23.6S461,108.7,462.5,114.5z"/>
		<path class="st8" d="M450.2,154.2c-6.4,16.6,6.4,9.3,11.5,0c5.2-9.3,2.1-45.4,2.1-45.4C463.9,124.1,456.6,137.6,450.2,154.2z"/>
	</g>
	<path class="st9" d="M271.3,127.6c-34.4,14.7-52.1,44.3-64.4,88.5c-13.7,49.2,2.8,126.2,28.6,166.7c17.7,27.6,42.3,44.6,82.4,54.5
		c26.6,6.5,71.6-10.6,80.3-38.8c11.5-37.5,4-55.1-21.4-93.2c-22.3-33.3,11.2-61.3,1.5-116.3s-70.7-64.1-70.7-64.1
		S289,119.9,271.3,127.6z"/>
	<path class="st10" d="M364.4,227.8c0-6.7-12.5-10.9-29.5-18.4c-17-7.5-18.8-1.7-25.1,0s-7.2,14.2-12.5,19.3s-9.1,15.1-9.8,29.3
		c-2.7,57,14.3,31,14.3,9.2c0-21.8,16.1,26.8,11.6,31c-4.5,4.2,25.1,41.9,18.8,30.2c-6.3-11.7-3.6-25.1,0-39.4
		c3.6-14.2,6.3,10.1,13.4,15.9c7.2,5.9,26,36,26,31.8c0-4.2-7.2-25.1-17-41.9s8.1-54.5,8.1-54.5S364.4,234.5,364.4,227.8z"/>
	<g id="Layer_1_1_">
		<path class="st11" d="M99.4,64.5c0,0,87.7,64.5,106.5,99.7c33.3,62.3,26.9,123.1,0,179.3c-19,39.6-60.9,71.2-75.2,80.4
			s-85,19.3-85,19.3s149.9-132.4,138.9-178.9c-10.9-46.5-19.2-120.5-53.5-153.8S99.4,64.5,99.4,64.5z"/>
		<path class="st12" d="M88.7,73.8c0,0,27.7,26.5,48,53.7c0,0,5.5,91.6,0.4,126.4c-9,59.5-26,110.6-31.3,124.8
			c-6.5,17.3-57.3,62.8-60,64.5c-2.7,1.7,21.3,0,21.3,0S189.8,306.6,184.5,274c-5.4-32.7-1.8-112.3-43.9-154.1S88.7,73.8,88.7,73.8z
			"/>
		<path class="st13" d="M88.7,73.8c0,0,28.8,19.3,48,53.7c0,0,32.5,81.6,23.5,137C140.4,385.1,85.5,414,82,417.3
			s-36.3,25.8-36.3,25.8l53.7-17.2c0,0,84.8-77.1,98.5-133.6c15.2-62.8,9.8-115.6-28.6-157.5S99.4,64.5,99.4,64.5L88.7,73.8z"/>
		<polygon class="st14" points="44.3,444.4 66.9,443.2 83.1,436.9 57.1,432.8 		"/>
		<polygon class="st14" points="99.4,64.5 88.7,73.8 94,83.1 		"/>
		<path class="st15" d="M135.7,132.1c-6.5,5.9,1.4,33.8,1.4,33.8s49.1-11.1,60.5-16.5s30.1,16.8,30.1,23.3s2.1-12.1-0.4-17.9
			s-16.6-19.1-16.6-19.1s7.4-9.6,10.7-1.4c3.3,8.2-3.4-12.1-10-9.2c-6.6,2.9-7.8,1.9-12.3,5.6c-4.5,3.7-11.5-0.4-14.5-1
			C181.8,129.1,141.6,126.8,135.7,132.1z"/>
	</g>
</g>
</svg>
