<?xml version="1.0" encoding="utf-8"?>
<!-- Generator: Adobe Illustrator 21.0.2, SVG Export Plug-In . SVG Version: 6.00 Build 0)  -->
<svg version="1.1" id="Layer_1" xmlns="http://www.w3.org/2000/svg" xmlns:xlink="http://www.w3.org/1999/xlink" x="0px" y="0px"
	 viewBox="0 0 512 512" style="enable-background:new 0 0 512 512;" xml:space="preserve">
<style type="text/css">
	.st0{fill:#5fba7d;}
	.st1{fill:#E2DD2B;}
	.st2{fill:#F6FC0B;}
	.st3{fill:#DBF42A;}
	.st4{fill:#3A3928;}
	.st5{fill:#ED3232;}
</style>
<g id="Layer_2">
	<g>
		<rect class="st0" width="512" height="512"/>
	</g>
</g>
<g id="Layer_1_1_">
	<path class="st1" d="M238.9,29.3c0,0,98,77,119,119c37.2,74.4,30,147,0,214c-21.2,47.3-68,85-84,96s-95,23-95,23
		s167.5-158,155.2-213.5c-12.2-55.5-21.4-143.8-59.8-183.6S238.9,29.3,238.9,29.3z"/>
	<path class="st2" d="M226.9,40.3c0,0,30.9,31.6,53.6,64.1c0,0,6.2,109.4,0.4,150.9c-10,71-29,132-35,149c-7.3,20.7-64,75-67,77
		s23.8,0,23.8,0s137.2-163,131.2-202s-2-134-49-184S226.9,40.3,226.9,40.3z"/>
	<path class="st3" d="M226.9,40.3c0,0,32.2,23,53.6,64.1c0,0,36.3,97.4,26.2,163.5c-22,144-83.3,178.5-87.3,182.5
		s-40.5,30.8-40.5,30.8l60-20.5c0,0,94.7-92,110-159.5c17-75,11-138-32-188s-78-84-78-84L226.9,40.3z"/>
	<polygon class="st4" points="177.3,482.7 202.6,481.3 220.7,473.8 191.6,468.9 	"/>
	<polygon class="st4" points="238.9,29.3 226.9,40.3 232.9,51.5 	"/>
	<path class="st5" d="M279.4,110c-7.3,7.1,1.6,40.3,1.6,40.3s54.9-13.2,67.6-19.7c12.7-6.5,33.6,20.1,33.6,27.8
		c0,7.7,2.4-14.5-0.5-21.4s-18.5-22.8-18.5-22.8s8.3-11.5,12-1.7S371.4,98,364,101.5s-8.7,2.3-13.7,6.7s-12.9-0.5-16.2-1.2
		C330.9,106.4,286,103.6,279.4,110z"/>
</g>
</svg>
