<?xml version="1.0" encoding="utf-8"?>
<!-- Generator: Adobe Illustrator 21.0.2, SVG Export Plug-In . SVG Version: 6.00 Build 0)  -->
<svg version="1.1" id="Layer_1" xmlns="http://www.w3.org/2000/svg" xmlns:xlink="http://www.w3.org/1999/xlink" x="0px" y="0px"
	 viewBox="0 0 512 512" style="enable-background:new 0 0 512 512;" xml:space="preserve">
<style type="text/css">
	.st0{fill:#B75F5F;}
	.st1{fill:#47E036;}
	.st2{fill:#E8E8E8;}
	.st3{fill:#F79719;}
</style>
<g id="Layer_2">
	<rect class="st0" width="512" height="512"/>
</g>
<path class="st1" d="M212.5,222.4c-9.2,78.9,84.2,76,84.2,76l3.7,13.4c0,0-82.7,11.8-109.2-82.6
	C166.9,142.6,212.5,222.4,212.5,222.4z"/>
<rect x="259.8" y="258.8" class="st2" width="35.1" height="10.8"/>
<path class="st1" d="M414.1,390.5l-83.9,3.9c-5.1,0.2-9.7-3.1-11.1-8l-22.4-87.9L290,274c-0.2-0.7-0.3-1.4-0.4-2.1
	c-0.4-5.6-6.3-37.4-82.5-41.9c-65.6-3.9-84.1-5.9-108.9-6.7c-5.9-0.2-10.6-5-10.6-10.9v-55.7c0-5.9,4.7-10.8,10.7-10.9l161.9-5.5
	c0,0,142.3-21.3,146,44.3c-13.6,47.6-17.7,55.9,9,165.6c2.5,10.4,6.2,19,8.7,25.6C426.4,382.7,421.5,390.1,414.1,390.5z"/>
<path class="st3" d="M87.6,156.5c0,0-41.7,25.1,0,56V156.5z"/>
<rect x="251.9" y="250.5" class="st2" width="8" height="28.9"/>
</svg>
