<?xml version="1.0" encoding="utf-8"?>
<!-- Generator: Adobe Illustrator 21.0.2, SVG Export Plug-In . SVG Version: 6.00 Build 0)  -->
<svg version="1.1" id="Layer_1" xmlns="http://www.w3.org/2000/svg" xmlns:xlink="http://www.w3.org/1999/xlink" x="0px" y="0px"
	 viewBox="0 0 512 512" style="enable-background:new 0 0 512 512;" xml:space="preserve">
<style type="text/css">
	.st0{fill:#B75F5F;}
	.st1{fill:#ED3232;}
	.st2{fill:#E2DD2B;}
	.st3{fill:#F6FC0B;}
	.st4{fill:#DBF42A;}
	.st5{fill:#3A3928;}
</style>
<g id="Layer_2">
	<g>
		<rect class="st0" width="512" height="512"/>
	</g>
</g>
<g id="Layer_1_1_">
	<path class="st1" d="M230,415.3c-7.8,2.6-1.8,21.7-1.8,21.7s55.3,1.6,68.4,0.1s43.2,13.4,42.6,17.5c-0.7,4.1-8.1-4.7-10.4-8.9
		c-2.3-4.1-16.3-15.1-16.3-15.1s9.2-4.8,12,1c2.8,5.8-2.5-8.3-10.1-7.6s-8.8-0.1-14.1,1.4c-5.3,1.6-12.7-2.3-15.9-3.2
		C281.2,421.5,237,413,230,415.3z"/>
	<path class="st2" d="M293.1,336.4c19.8,51.6,70.1,41.6,115.3,76.1c45.1,34.6,259.1-50.3,259.1-50.3s-44.3,66.5-61,76.3
		s-70.7,36.3-122.5,35.5c-73.4-1.2-142.2-16.2-193.9-81.3c-29.2-36.8-28.3-121.4-28.3-121.4S273.3,284.7,293.1,336.4z"/>
	<path class="st3" d="M274.3,255.3c0,0-17,40.8-38.1,74.4c0,0-98.3,48.4-138.8,59.3c-69.3,18.5-132.8,24.8-150.8,26
		c-21.9,1.4-94-29.6-97-31.6s9.3,21.9,9.3,21.9s197.3,45.8,230.9,25s111.2-24.2,146.7-83C269.1,293.1,274.3,255.3,274.3,255.3z"/>
	<path class="st4" d="M258,268.5c0,0,3.4,39.4-14,82.4c0,0-66.2,84.6-133.5,96.1C-13.3,523.6-82.3,491.1-88,490.6
		s-49.7-10.8-49.7-10.8l54.5,32.4c0,0,131.4,12.4,192.7-19.8c68.1-35.7,141.2-42.9,151.4-108.1c10.2-65.2,13.3-113.9,13.3-113.9
		L258,268.5z"/>
	<polygon class="st5" points="276.6,247.2 255.1,271.5 273.8,281.8 	"/>
</g>
</svg>
